<svg width="183" height="74" viewBox="0 0 183 74" fill="none" xmlns="http://www.w3.org/2000/svg">
<path d="M2.6 35.4914C2.6 34.3447 2.93333 33.438 3.6 32.7714C4.26667 32.1047 5.17333 31.7714 6.32 31.7714H19.52C19.7067 32.0647 19.8667 32.4514 20 32.9314C20.16 33.4114 20.24 33.918 20.24 34.4514C20.24 35.4647 20.0133 36.1847 19.56 36.6114C19.1333 37.038 18.56 37.2514 17.84 37.2514H9.4V40.9714H18.4C18.5867 41.2647 18.7467 41.6514 18.88 42.1314C19.04 42.5847 19.12 43.078 19.12 43.6114C19.12 44.6247 18.9067 45.3447 18.48 45.7714C18.0533 46.198 17.48 46.4114 16.76 46.4114H9.4V50.6114H19.68C19.8667 50.9047 20.0267 51.2914 20.16 51.7714C20.32 52.2514 20.4 52.758 20.4 53.2914C20.4 54.3047 20.1733 55.038 19.72 55.4914C19.2933 55.918 18.72 56.1314 18 56.1314H6.32C5.17333 56.1314 4.26667 55.798 3.6 55.1314C2.93333 54.4647 2.6 53.558 2.6 52.4114V35.4914ZM32.3141 51.6914C32.7674 51.6914 33.2607 51.6514 33.7941 51.5714C34.3541 51.4647 34.7674 51.3314 35.0341 51.1714V47.9714L32.1541 48.2114C31.4074 48.2647 30.7941 48.4247 30.3141 48.6914C29.8341 48.958 29.5941 49.358 29.5941 49.8914C29.5941 50.4247 29.7941 50.8647 30.1941 51.2114C30.6207 51.5314 31.3274 51.6914 32.3141 51.6914ZM31.9941 35.9714C33.4341 35.9714 34.7407 36.118 35.9141 36.4114C37.1141 36.7047 38.1274 37.158 38.9541 37.7714C39.8074 38.358 40.4607 39.118 40.9141 40.0514C41.3674 40.958 41.5941 42.038 41.5941 43.2914V52.2514C41.5941 52.9447 41.3941 53.518 40.9941 53.9714C40.6207 54.398 40.1674 54.7714 39.6341 55.0914C37.9007 56.1314 35.4607 56.6514 32.3141 56.6514C30.9007 56.6514 29.6207 56.518 28.4741 56.2514C27.3541 55.9847 26.3807 55.5847 25.5541 55.0514C24.7541 54.518 24.1274 53.838 23.6741 53.0114C23.2474 52.1847 23.0341 51.2247 23.0341 50.1314C23.0341 48.2914 23.5807 46.878 24.6741 45.8914C25.7674 44.9047 27.4607 44.2914 29.7541 44.0514L34.9941 43.4914V43.2114C34.9941 42.438 34.6474 41.8914 33.9541 41.5714C33.2874 41.2247 32.3141 41.0514 31.0341 41.0514C30.0207 41.0514 29.0341 41.158 28.0741 41.3714C27.1141 41.5847 26.2474 41.8514 25.4741 42.1714C25.1274 41.9314 24.8341 41.5714 24.5941 41.0914C24.3541 40.5847 24.2341 40.0647 24.2341 39.5314C24.2341 38.838 24.3941 38.2914 24.7141 37.8914C25.0607 37.4647 25.5807 37.1047 26.2741 36.8114C27.0474 36.518 27.9541 36.3047 28.9941 36.1714C30.0607 36.038 31.0607 35.9714 31.9941 35.9714ZM62.1519 50.2114C62.1519 52.238 61.3919 53.8247 59.8719 54.9714C58.3519 56.118 56.1119 56.6914 53.1519 56.6914C52.0319 56.6914 50.9919 56.6114 50.0319 56.4514C49.0719 56.2914 48.2452 56.0514 47.5519 55.7314C46.8852 55.3847 46.3519 54.958 45.9519 54.4514C45.5785 53.9447 45.3919 53.3447 45.3919 52.6514C45.3919 52.0114 45.5252 51.478 45.7919 51.0514C46.0585 50.598 46.3785 50.2247 46.7519 49.9314C47.5252 50.358 48.4052 50.7447 49.3919 51.0914C50.4052 51.4114 51.5652 51.5714 52.8719 51.5714C53.6985 51.5714 54.3252 51.4514 54.7519 51.2114C55.2052 50.9714 55.4319 50.6514 55.4319 50.2514C55.4319 49.878 55.2719 49.5847 54.9519 49.3714C54.6319 49.158 54.0985 48.9847 53.3519 48.8514L52.1519 48.6114C49.8319 48.158 48.0985 47.4514 46.9519 46.4914C45.8319 45.5047 45.2719 44.1047 45.2719 42.2914C45.2719 41.3047 45.4852 40.4114 45.9119 39.6114C46.3385 38.8114 46.9385 38.1447 47.7119 37.6114C48.4852 37.078 49.4052 36.6647 50.4719 36.3714C51.5652 36.078 52.7652 35.9314 54.0719 35.9314C55.0585 35.9314 55.9785 36.0114 56.8319 36.1714C57.7119 36.3047 58.4719 36.518 59.1119 36.8114C59.7519 37.1047 60.2585 37.4914 60.6319 37.9714C61.0052 38.4247 61.1919 38.9714 61.1919 39.6114C61.1919 40.2247 61.0719 40.758 60.8319 41.2114C60.6185 41.638 60.3385 41.998 59.9919 42.2914C59.7785 42.158 59.4585 42.0247 59.0319 41.8914C58.6052 41.7314 58.1385 41.598 57.6319 41.4914C57.1252 41.358 56.6052 41.2514 56.0719 41.1714C55.5652 41.0914 55.0985 41.0514 54.6719 41.0514C53.7919 41.0514 53.1119 41.158 52.6319 41.3714C52.1519 41.558 51.9119 41.8647 51.9119 42.2914C51.9119 42.5847 52.0452 42.8247 52.3119 43.0114C52.5785 43.198 53.0852 43.3714 53.8319 43.5314L55.0719 43.8114C57.6319 44.398 59.4452 45.2114 60.5119 46.2514C61.6052 47.2647 62.1519 48.5847 62.1519 50.2114ZM67.8934 51.0514C67.6001 50.3847 67.2801 49.638 66.9334 48.8114C66.6134 47.9847 66.2668 47.038 65.8934 45.9714C65.5468 44.9047 65.1734 43.6914 64.7734 42.3314C64.4001 40.9447 64.0001 39.358 63.5734 37.5714C63.9468 37.198 64.4401 36.878 65.0534 36.6114C65.6934 36.318 66.3868 36.1714 67.1334 36.1714C68.0668 36.1714 68.8401 36.3714 69.4534 36.7714C70.0668 37.1447 70.5201 37.8647 70.8134 38.9314L73.9734 49.9314H74.1334C74.4534 49.0247 74.7601 48.038 75.0534 46.9714C75.3734 45.9047 75.6801 44.8114 75.9734 43.6914C76.2668 42.5447 76.5334 41.4114 76.7734 40.2914C77.0401 39.1447 77.2668 38.0247 77.4534 36.9314C78.4134 36.4247 79.4668 36.1714 80.6134 36.1714C81.5468 36.1714 82.3201 36.3714 82.9334 36.7714C83.5468 37.1714 83.8534 37.8647 83.8534 38.8514C83.8534 39.5714 83.7601 40.4114 83.5734 41.3714C83.3868 42.3047 83.1334 43.3047 82.8134 44.3714C82.5201 45.438 82.1601 46.5447 81.7334 47.6914C81.3334 48.8114 80.9068 49.918 80.4534 51.0114C80.0001 52.1047 79.5334 53.1447 79.0534 54.1314C78.5734 55.0914 78.1068 55.958 77.6534 56.7314C76.9068 58.038 76.2134 59.1047 75.5734 59.9314C74.9334 60.758 74.3201 61.398 73.7334 61.8514C73.1468 62.3314 72.5601 62.6514 71.9734 62.8114C71.3868 62.998 70.7734 63.0914 70.1334 63.0914C69.0134 63.0914 68.1068 62.758 67.4134 62.0914C66.7201 61.4247 66.3068 60.558 66.1734 59.4914C67.0268 58.8247 67.8801 58.078 68.7334 57.2514C69.5868 56.4514 70.3601 55.6247 71.0534 54.7714C70.6001 54.638 70.1068 54.3314 69.5734 53.8514C69.0668 53.3447 68.5068 52.4114 67.8934 51.0514ZM94.2847 46.3714C93.1114 45.9714 92.0447 45.5714 91.0847 45.1714C90.1247 44.7447 89.298 44.238 88.6047 43.6514C87.9114 43.0647 87.3647 42.3714 86.9647 41.5714C86.5914 40.7447 86.4047 39.7447 86.4047 38.5714C86.4047 36.3047 87.2714 34.4914 89.0047 33.1314C90.7647 31.7714 93.218 31.0914 96.3647 31.0914C97.5114 31.0914 98.578 31.1714 99.5647 31.3314C100.551 31.4914 101.391 31.7447 102.085 32.0914C102.805 32.4114 103.365 32.838 103.765 33.3714C104.165 33.878 104.365 34.478 104.365 35.1714C104.365 35.8647 104.205 36.4647 103.885 36.9714C103.565 37.4514 103.178 37.8647 102.725 38.2114C102.138 37.838 101.351 37.518 100.365 37.2514C99.378 36.958 98.298 36.8114 97.1247 36.8114C95.9247 36.8114 95.0447 36.9847 94.4847 37.3314C93.9247 37.6514 93.6447 38.0647 93.6447 38.5714C93.6447 38.9714 93.818 39.3047 94.1647 39.5714C94.5114 39.8114 95.0314 40.038 95.7247 40.2514L97.8447 40.9314C100.351 41.7314 102.271 42.758 103.605 44.0114C104.965 45.238 105.645 46.918 105.645 49.0514C105.645 51.318 104.751 53.158 102.965 54.5714C101.178 55.958 98.5514 56.6514 95.0847 56.6514C93.858 56.6514 92.7114 56.5447 91.6447 56.3314C90.6047 56.1447 89.6847 55.8647 88.8847 55.4914C88.1114 55.0914 87.498 54.6114 87.0447 54.0514C86.618 53.4647 86.4047 52.798 86.4047 52.0514C86.4047 51.278 86.6314 50.6247 87.0847 50.0914C87.538 49.5314 88.0314 49.1047 88.5647 48.8114C89.3114 49.398 90.218 49.9047 91.2847 50.3314C92.378 50.758 93.5647 50.9714 94.8447 50.9714C96.1514 50.9714 97.0714 50.7714 97.6047 50.3714C98.138 49.9714 98.4047 49.5047 98.4047 48.9714C98.4047 48.438 98.1914 48.038 97.7647 47.7714C97.338 47.478 96.738 47.198 95.9647 46.9314L94.2847 46.3714ZM115.716 49.3314C115.716 50.0247 115.929 50.518 116.356 50.8114C116.809 51.1047 117.436 51.2514 118.236 51.2514C118.636 51.2514 119.049 51.2247 119.476 51.1714C119.903 51.0914 120.276 50.998 120.596 50.8914C120.836 51.1847 121.036 51.518 121.196 51.8914C121.383 52.238 121.476 52.6647 121.476 53.1714C121.476 54.1847 121.089 55.0114 120.316 55.6514C119.569 56.2914 118.236 56.6114 116.316 56.6114C113.969 56.6114 112.156 56.078 110.876 55.0114C109.623 53.9447 108.996 52.2114 108.996 49.8114V32.6914C109.289 32.6114 109.703 32.5314 110.236 32.4514C110.796 32.3447 111.383 32.2914 111.996 32.2914C113.169 32.2914 114.076 32.5047 114.716 32.9314C115.383 33.3314 115.716 34.198 115.716 35.5314V38.0914H120.956C121.116 38.3847 121.263 38.758 121.396 39.2114C121.556 39.638 121.636 40.118 121.636 40.6514C121.636 41.5847 121.423 42.2647 120.996 42.6914C120.596 43.0914 120.049 43.2914 119.356 43.2914H115.716V49.3314ZM133.252 51.6914C133.705 51.6914 134.198 51.6514 134.732 51.5714C135.292 51.4647 135.705 51.3314 135.972 51.1714V47.9714L133.092 48.2114C132.345 48.2647 131.732 48.4247 131.252 48.6914C130.772 48.958 130.532 49.358 130.532 49.8914C130.532 50.4247 130.732 50.8647 131.132 51.2114C131.558 51.5314 132.265 51.6914 133.252 51.6914ZM132.932 35.9714C134.372 35.9714 135.678 36.118 136.852 36.4114C138.052 36.7047 139.065 37.158 139.892 37.7714C140.745 38.358 141.398 39.118 141.852 40.0514C142.305 40.958 142.532 42.038 142.532 43.2914V52.2514C142.532 52.9447 142.332 53.518 141.932 53.9714C141.558 54.398 141.105 54.7714 140.572 55.0914C138.838 56.1314 136.398 56.6514 133.252 56.6514C131.838 56.6514 130.558 56.518 129.412 56.2514C128.292 55.9847 127.318 55.5847 126.492 55.0514C125.692 54.518 125.065 53.838 124.612 53.0114C124.185 52.1847 123.972 51.2247 123.972 50.1314C123.972 48.2914 124.518 46.878 125.612 45.8914C126.705 44.9047 128.398 44.2914 130.692 44.0514L135.932 43.4914V43.2114C135.932 42.438 135.585 41.8914 134.892 41.5714C134.225 41.2247 133.252 41.0514 131.972 41.0514C130.958 41.0514 129.972 41.158 129.012 41.3714C128.052 41.5847 127.185 41.8514 126.412 42.1714C126.065 41.9314 125.772 41.5714 125.532 41.0914C125.292 40.5847 125.172 40.0647 125.172 39.5314C125.172 38.838 125.332 38.2914 125.652 37.8914C125.998 37.4647 126.518 37.1047 127.212 36.8114C127.985 36.518 128.892 36.3047 129.932 36.1714C130.998 36.038 131.998 35.9714 132.932 35.9714ZM149.261 51.0514C148.967 50.3847 148.647 49.638 148.301 48.8114C147.981 47.9847 147.634 47.038 147.261 45.9714C146.914 44.9047 146.541 43.6914 146.141 42.3314C145.767 40.9447 145.367 39.358 144.941 37.5714C145.314 37.198 145.807 36.878 146.421 36.6114C147.061 36.318 147.754 36.1714 148.501 36.1714C149.434 36.1714 150.207 36.3714 150.821 36.7714C151.434 37.1447 151.887 37.8647 152.181 38.9314L155.341 49.9314H155.501C155.821 49.0247 156.127 48.038 156.421 46.9714C156.741 45.9047 157.047 44.8114 157.341 43.6914C157.634 42.5447 157.901 41.4114 158.141 40.2914C158.407 39.1447 158.634 38.0247 158.821 36.9314C159.781 36.4247 160.834 36.1714 161.981 36.1714C162.914 36.1714 163.687 36.3714 164.301 36.7714C164.914 37.1714 165.221 37.8647 165.221 38.8514C165.221 39.5714 165.127 40.4114 164.941 41.3714C164.754 42.3047 164.501 43.3047 164.181 44.3714C163.887 45.438 163.527 46.5447 163.101 47.6914C162.701 48.8114 162.274 49.918 161.821 51.0114C161.367 52.1047 160.901 53.1447 160.421 54.1314C159.941 55.0914 159.474 55.958 159.021 56.7314C158.274 58.038 157.581 59.1047 156.941 59.9314C156.301 60.758 155.687 61.398 155.101 61.8514C154.514 62.3314 153.927 62.6514 153.341 62.8114C152.754 62.998 152.141 63.0914 151.501 63.0914C150.381 63.0914 149.474 62.758 148.781 62.0914C148.087 61.4247 147.674 60.558 147.541 59.4914C148.394 58.8247 149.247 58.078 150.101 57.2514C150.954 56.4514 151.727 55.6247 152.421 54.7714C151.967 54.638 151.474 54.3314 150.941 53.8514C150.434 53.3447 149.874 52.4114 149.261 51.0514Z" fill="#3F523C"/>
<path d="M30.6232 39.0679C55.625 10.0488 140.966 -5.75156 175.5 32.7288" stroke="#3F523C" stroke-width="4" stroke-linecap="round" stroke-dasharray="8 8"/>
<circle cx="176.5" cy="32.7288" r="6" fill="#3F523C" stroke="#3F523C"/>
</svg>
